<?xml version="1.0" encoding="utf-8"?>
<!-- Generator: Adobe Illustrator 18.0.0, SVG Export Plug-In . SVG Version: 6.00 Build 0)  -->
<!DOCTYPE svg PUBLIC "-//W3C//DTD SVG 1.1//EN" "http://www.w3.org/Graphics/SVG/1.1/DTD/svg11.dtd">
<svg version="1.1" id="Layer_1" xmlns="http://www.w3.org/2000/svg" xmlns:xlink="http://www.w3.org/1999/xlink" x="0px" y="0px"
	 viewBox="-20 -220 1000 1000" enable-background="new -20 -220 1000 1000" xml:space="preserve">
<path fill="#121212" stroke="#FFFFFF" stroke-width="13.0568" stroke-miterlimit="10" d="M966.9,782.6H-6.9c-8.7,0-15.7-7-15.7-15.7
	v-973.8c0-8.7,7-15.7,15.7-15.7h973.8c8.7,0,15.7,7,15.7,15.7v973.8C982.5,775.7,975.6,782.6,966.9,782.6z"/>
<polyline fill="#121212" stroke="#FFFFFF" stroke-width="12.7525" stroke-miterlimit="10" points="323.1,-203.7 323.1,115.9 
	3.5,115.9 "/>
<polyline fill="#121212" stroke="#FFFFFF" stroke-width="12.7525" stroke-miterlimit="10" points="642.9,-203.7 642.9,115.9 
	323.1,115.9 "/>
<polyline fill="#121212" stroke="#FFFFFF" stroke-width="12.7525" stroke-miterlimit="10" points="962.5,115.9 642.9,115.9 
	642.9,-203.7 "/>
<polyline fill="#121212" stroke="#FFFFFF" stroke-width="12.7525" stroke-miterlimit="10" points="323.1,115.9 323.1,435.6 
	3.5,435.6 "/>
<rect x="323.1" y="115.9" fill="#121212" stroke="#FFFFFF" stroke-width="12.7525" stroke-miterlimit="10" width="319.6" height="319.6"/>
<polyline fill="#121212" stroke="#FFFFFF" stroke-width="12.7525" stroke-miterlimit="10" points="962.5,435.6 642.9,435.6 
	642.9,115.9 "/>
<line fill="none" stroke="#FFFFFF" stroke-width="12.7525" stroke-miterlimit="10" x1="323.1" y1="435.6" x2="323.1" y2="755.3"/>
<polyline fill="#121212" stroke="#FFFFFF" stroke-width="12.7525" stroke-miterlimit="10" points="323.1,435.6 642.9,435.6 
	642.9,755.3 "/>
<path fill="#121212" stroke="#FFFFFF" stroke-width="12.7525" stroke-miterlimit="10" d="M642.9,435.6"/>
<g>
	<path fill="#0288D1" d="M456.2,211.4l26.7,48.1l27.1-48.1h19.8l-36.2,59.3l40.6,69.6h-21.1l-30.5-56.6l-30.8,56.6H432l39.7-68.7
		l-36.4-60.2L456.2,211.4L456.2,211.4z"/>
</g>
<g>
	<path fill="#0288D1" d="M775.8-108.3l26.7,48.1l27.1-48.1h19.8l-36.3,59.3l40.6,69.6h-21.1l-30.5-56.6l-30.8,56.6h-19.8l39.7-68.7
		l-36.4-60.2H775.8z"/>
</g>
<g>
	<path fill="#0288D1" d="M136.5,531l26.7,48.1l27.1-48.1h19.8l-36.3,59.3l40.6,69.6h-21.1l-30.5-56.6l-30.8,56.6h-19.8l39.7-68.7
		L115.5,531H136.5z"/>
</g>
<g>
	<path fill="#FFFFFF" d="M163.4,44.7c-42.1,0-63.8-35-63.8-88c0-52.3,21.6-89.1,63.8-89.1s63.8,35.5,63.8,88.9
		C227.1,8.5,205.5,44.7,163.4,44.7z M163.4-112.3c-27.3,0-38.3,23.8-38.3,69c0,44.9,11.6,68.3,38.3,68.3c27.3,0,38.3-23.6,38.3-68.5
		S190.6-112.3,163.4-112.3z"/>
</g>
<g>
	<path fill="#FFFFFF" d="M802.6,364.3c-42.1,0-63.8-35-63.8-88c0-52.3,21.6-89.1,63.8-89.1s63.8,35.5,63.8,88.9
		C866.4,328.1,844.9,364.3,802.6,364.3z M802.6,207.3c-27.3,0-38.3,23.8-38.3,69c0,44.9,11.6,68.3,38.3,68.3
		c27.3,0,38.3-23.6,38.3-68.5S830,207.3,802.6,207.3z"/>
</g>
</svg>
