<?xml version="1.0" encoding="utf-8"?>
<!-- Generator: Adobe Illustrator 18.0.0, SVG Export Plug-In . SVG Version: 6.00 Build 0)  -->
<!DOCTYPE svg PUBLIC "-//W3C//DTD SVG 1.1//EN" "http://www.w3.org/Graphics/SVG/1.1/DTD/svg11.dtd">
<svg version="1.1" id="Layer_1" xmlns="http://www.w3.org/2000/svg" xmlns:xlink="http://www.w3.org/1999/xlink" x="0px" y="0px"
	 viewBox="0 0 1000 1000" enable-background="new 0 0 1000 1000" xml:space="preserve">
<path fill="#121212" stroke="#FFFFFF" stroke-width="7.167" stroke-miterlimit="10" d="M974.3,996.8H19.8c-8.5,0-15.4-6.9-15.4-15.4
	V26.9c0-8.5,6.9-15.4,15.4-15.4h954.5c8.5,0,15.4,6.9,15.4,15.4v954.5C989.6,990,982.8,996.8,974.3,996.8z"/>
<polyline fill="#121212" stroke="#FFFFFF" stroke-width="7" stroke-miterlimit="10" points="343.3,30 343.3,343.3 30,343.3 "/>
<polyline fill="#121212" stroke="#FFFFFF" stroke-width="7" stroke-miterlimit="10" points="656.7,30 656.7,343.3 343.3,343.3 "/>
<polyline fill="#121212" stroke="#FFFFFF" stroke-width="7" stroke-miterlimit="10" points="970,343.3 656.7,343.3 656.7,30 "/>
<polyline fill="#121212" stroke="#FFFFFF" stroke-width="7" stroke-miterlimit="10" points="343.3,343.3 343.3,656.7 30,656.7 "/>
<rect x="343.3" y="343.3" fill="#121212" stroke="#FFFFFF" stroke-width="7" stroke-miterlimit="10" width="313.3" height="313.3"/>
<polyline fill="#121212" stroke="#FFFFFF" stroke-width="7" stroke-miterlimit="10" points="970,656.7 656.7,656.7 656.7,343.3 "/>
<line fill="#121212" stroke="#FFFFFF" stroke-width="7" stroke-miterlimit="10" x1="343.3" y1="656.7" x2="343.3" y2="970"/>
<polyline fill="#121212" stroke="#FFFFFF" stroke-width="7" stroke-miterlimit="10" points="343.3,656.7 656.7,656.7 656.7,970 "/>
<path fill="#121212" stroke="#FFFFFF" stroke-width="7" stroke-miterlimit="10" d="M656.7,656.7"/>
<g>
	<path fill="#0288D1" d="M473.7,436.9l26.2,47.1l26.6-47.1h19.4L510.4,495l39.8,68.2h-20.7l-29.9-55.5l-30.2,55.5h-19.4l38.9-67.3
		l-35.7-59H473.7z"/>
</g>
<g>
	<path fill="#0288D1" d="M787,123.5l26.2,47.1l26.6-47.1h19.4l-35.6,58.1l39.8,68.2h-20.7l-29.9-55.5l-30.2,55.5h-19.4l38.9-67.3
		l-35.7-59H787z"/>
</g>
<g>
	<path fill="#0288D1" d="M160.4,750.2l26.2,47.1l26.6-47.1h19.4L197,808.3l39.8,68.2h-20.7l-29.9-55.5L156,876.5h-19.4l38.9-67.3
		l-35.7-59H160.4z"/>
</g>
<g>
	<path fill="#FFFFFF" d="M186.7,273.5c-41.3,0-62.5-34.3-62.5-86.3c0-51.3,21.2-87.3,62.5-87.3s62.5,34.8,62.5,87.1
		C249.2,238,228,273.5,186.7,273.5z M186.7,119.6c-26.8,0-37.5,23.3-37.5,67.6c0,44,11.4,66.9,37.5,66.9c26.8,0,37.5-23.1,37.5-67.1
		S213.4,119.6,186.7,119.6z"/>
</g>
<g>
	<path fill="#FFFFFF" d="M813.3,586.8c-41.3,0-62.5-34.3-62.5-86.3c0-51.3,21.2-87.3,62.5-87.3s62.5,34.8,62.5,87.1
		C875.8,551.3,854.7,586.8,813.3,586.8z M813.3,432.9c-26.8,0-37.5,23.3-37.5,67.6c0,44,11.4,66.9,37.5,66.9
		c26.8,0,37.5-23.1,37.5-67.1S840.1,432.9,813.3,432.9z"/>
</g>
</svg>
